SplineFontDB: 3.0
FontName: A-Industrial-Black
FullName: A Industrial Black
FamilyName: A Industrial Black
Weight: Black
Copyright: Copyright (c) 2017, Asabina GmbH <type.industrial@asabina.de>
UComments: "A decorative type used in the wordmark for Asabina Gmbh. The type intents to look industrial and resemble some attributes one may find in typefaces associated with sci-fi productions."
FontLog: "2017-9-16: Starting a prototype in FontForge (http://fontforge.org) based on some characters designed in Inkscape"
Version: 0.1
ItalicAngle: 0
UnderlinePosition: 0
UnderlineWidth: 2024
Ascent: 1428
Descent: 620
InvalidEm: 0
LayerCount: 2
Layer: 0 0 "Back" 1
Layer: 1 0 "Fore" 0
XUID: [1021 1019 -1955934214 2614676]
FSType: 0
OS2Version: 0
OS2_WeightWidthSlopeOnly: 0
OS2_UseTypoMetrics: 1
CreationTime: 1505574909
ModificationTime: 1505822908
PfmFamily: 17
TTFWeight: 400
TTFWidth: 5
LineGap: 184
VLineGap: 0
OS2TypoAscent: 0
OS2TypoAOffset: 1
OS2TypoDescent: 0
OS2TypoDOffset: 1
OS2TypoLinegap: 184
OS2WinAscent: 0
OS2WinAOffset: 1
OS2WinDescent: 0
OS2WinDOffset: 1
HheadAscent: 0
HheadAOffset: 1
HheadDescent: 0
HheadDOffset: 1
OS2Vendor: 'PfEd'
MarkAttachClasses: 1
DEI: 91125
LangName: 1033
Encoding: UnicodeBmp
UnicodeInterp: none
NameList: AGL For New Fonts
DisplaySize: -128
AntiAlias: 1
FitToEm: 0
WinInfo: 65406 11 8
BeginPrivate: 0
EndPrivate
Grid
2020 2248 m 0
 2020 -1024 l 1024
  Named: "20"
-202 -606 m 0
 2248 -606 l 1024
  Named: "s3"
-200 -404 m 0
 2248 -404 l 1024
  Named: "s2"
-200 -202 m 0
 2248 -202 l 1024
  Named: "s1"
-200 1414 m 0
 2248 1414 l 1024
  Named: "n7"
-200 1212 m 0
 2248 1212 l 1024
  Named: "n6"
-200 1010 m 0
 2248 1010 l 1024
  Named: "n5"
-200 808 m 0
 2248 808 l 1024
  Named: "n4"
-200 606 m 0
 2248 606 l 1024
  Named: "n3"
-200 404 m 0
 2248 404 l 1024
  Named: "n2"
-200 202 m 0
 2248 202 l 1024
  Named: "n1"
202 2248 m 0
 202 -1024 l 1024
  Named: "2"
404 2248 m 0
 404 -1024 l 1024
  Named: "4"
606 2248 m 0
 606 -1024 l 1024
  Named: "6"

StartChar: a
Encoding: 97 97 0
Width: 1414
VWidth: 0
Flags: W
HStem: 0 404<404 808> 606 404<404 808>
LayerCount: 2
Fore
SplineSet
404 404 m 1
 536 404 676 404 808 404 c 1
 808 606 l 1
 671 606 541 606 404 606 c 1
 404 404 l 1
0 0 m 1
 0 341 0 669 0 1010 c 1
 272 1010 536 1010 808 1010 c 1
 808 1212 l 1
 1212 1010 l 1
 1212 0 l 1
 803 0 409 0 0 0 c 1
EndSplineSet
Validated: 1
EndChar

StartChar: s
Encoding: 115 115 1
Width: 1414
VWidth: 0
Flags: W
HStem: 0 404<0 808> 606 404<0 90.7958 404 808>
LayerCount: 2
Fore
SplineSet
0 0 m 25
 0 404 l 17
 272 404 536 404 808 404 c 9
 808 606 l 25
 0 606 l 25
 0 1010 l 17
 129 1073 257 1137 404 1212 c 9
 404 1010 l 17
 676 1010 940 1010 1212 1010 c 9
 1212 0 l 25
 0 0 l 25
EndSplineSet
Validated: 1
EndChar

StartChar: b
Encoding: 98 98 2
Width: 1414
VWidth: 0
Flags: W
HStem: 0 404<404 808> 606 404<404 808> 1394 20G<0 404>
VStem: 0 404<404 606 1010 1414>
LayerCount: 2
Fore
SplineSet
404 606 m 25
 404 404 l 25
 808 404 l 25
 808 606 l 25
 404 606 l 25
0 1414 m 9
 404 1414 l 25
 404 1010 l 25
 1212 1010 l 25
 1212 0 l 25
 0 0 l 17
 -0 471 0 943 0 1414 c 9
EndSplineSet
Validated: 1
EndChar

StartChar: i
Encoding: 105 105 3
Width: 606
VWidth: 0
Flags: W
HStem: 0 21G<0 404> 990 20G<0 404> 990 20G<0 404>
VStem: 0 404<0 1010>
LayerCount: 2
Fore
SplineSet
0 0 m 25xd0
 0 1010 l 25
 404 1010 l 25
 404 0 l 25
 0 0 l 25xd0
EndSplineSet
Validated: 1
EndChar

StartChar: n
Encoding: 110 110 4
Width: 1414
VWidth: 0
Flags: W
HStem: 0 21G<0 404 808 1212> 606 404<404 808>
VStem: 0 404<0 606> 808 404<0 606>
LayerCount: 2
Fore
SplineSet
0 0 m 17
 -0 335 0 719 0 1010 c 9
 1212 1010 l 25
 1212 0 l 25
 808 0 l 25
 808 606 l 25
 404 606 l 25
 404 0 l 25
 0 0 l 17
EndSplineSet
Validated: 1
EndChar

StartChar: q
Encoding: 113 113 5
Width: 1414
VWidth: 0
Flags: W
HStem: 0 404<404 808> 606 404<404 808>
VStem: 808 404<-202 0 404 606>
LayerCount: 2
Fore
SplineSet
404 404 m 25
 808 404 l 25
 808 606 l 17
 671 606 541 606 404 606 c 9
 404 404 l 25
0 0 m 1
 0 1010 l 25
 1212 1010 l 1
 1212 -202 l 1
 808 -404 l 1
 808 0 l 1
 0 0 l 1
EndSplineSet
Validated: 1
EndChar

StartChar: c
Encoding: 99 99 6
Width: 1414
VWidth: 0
Flags: W
HStem: 0 404<404 1212> 606 404<404 1212>
LayerCount: 2
Fore
SplineSet
0 0 m 25
 0 1010 l 25
 1212 1010 l 25
 1212 606 l 25
 404 606 l 25
 404 404 l 25
 1212 404 l 25
 1212 0 l 25
 0 0 l 25
EndSplineSet
Validated: 1
EndChar

StartChar: d
Encoding: 100 100 7
Width: 1414
VWidth: 0
Flags: W
HStem: 0 404<404 808> 606 404<404 808> 1394 20G<808 1212>
VStem: 808 404<404 606 1010 1414>
LayerCount: 2
Fore
SplineSet
404 606 m 9
 404 404 l 25
 808 404 l 25
 808 606 l 17
 671 606 541 606 404 606 c 9
0 0 m 25
 0 1010 l 25
 808 1010 l 25
 808 1414 l 25
 1212 1414 l 25
 1212 0 l 25
 0 0 l 25
EndSplineSet
Validated: 1
EndChar

StartChar: e
Encoding: 101 101 8
Width: 1414
VWidth: 0
Flags: W
HStem: 0 404<404 808> 606 404<404 808>
LayerCount: 2
Fore
SplineSet
404 606 m 25
 404 404 l 17
 541 404 671 404 808 404 c 9
 808 606 l 25
 404 606 l 25
0 0 m 25
 0 1010 l 25
 1212 1010 l 25
 1212 0 l 25
 404 0 l 25
 404 -202 l 25
 0 0 l 25
EndSplineSet
Validated: 1
EndChar

StartChar: f
Encoding: 102 102 9
Width: 1414
VWidth: 0
Flags: W
HStem: 0 404<404 1212> 606 404<404 1212>
VStem: 0 404<-202 0 404 606>
LayerCount: 2
Fore
SplineSet
0 1010 m 25
 1212 1010 l 25
 1212 606 l 25
 404 606 l 25
 404 404 l 1
 1212 404 l 25
 1212 0 l 25
 404 0 l 1
 404 -404 l 25
 0 -202 l 25
 0 1010 l 25
EndSplineSet
Validated: 1
EndChar

StartChar: g
Encoding: 103 103 10
Width: 1414
VWidth: 0
Flags: W
HStem: -606 404<505 808> 0 404<404 808> 606 404<404 808>
VStem: 808 404<-202 0 404 606>
CounterMasks: 1 e0
LayerCount: 2
Fore
SplineSet
404 404 m 25
 808 404 l 25
 808 606 l 17
 671 606 541 606 404 606 c 9
 404 404 l 25
1212 -606 m 1
 505 -606 l 25
 505 -202 l 25
 808 -202 l 25
 808 0 l 25
 0 0 l 1
 0 1010 l 1
 409 1010 803 1010 1212 1010 c 1
 1212 -606 l 1
EndSplineSet
Validated: 1
EndChar

StartChar: h
Encoding: 104 104 11
Width: 1414
VWidth: 0
Flags: W
HStem: 0 21G<0 404 808 1212> 606 404<404 808> 1394 20G<0 404>
VStem: 0 404<0 606 1010 1414> 808 404<0 606>
LayerCount: 2
Fore
SplineSet
0 0 m 25
 0 1414 l 25
 404 1414 l 25
 404 1010 l 25
 1212 1010 l 25
 1212 0 l 25
 808 0 l 25
 808 606 l 25
 404 606 l 25
 404 0 l 25
 0 0 l 25
EndSplineSet
Validated: 1
EndChar

StartChar: j
Encoding: 106 106 12
Width: 606
VWidth: 0
Flags: W
HStem: 990 20G<0 404> 990 20G<0 404>
VStem: 0 404<-202 1010>
LayerCount: 2
Fore
SplineSet
0 1010 m 25xa0
 404 1010 l 25
 404 -202 l 25
 0 -404 l 25
 0 1010 l 25xa0
EndSplineSet
Validated: 1
EndChar

StartChar: k
Encoding: 107 107 13
Width: 1414
VWidth: 0
Flags: W
HStem: 0 21G<0 404 606 1212> 1394 20G<0 404>
VStem: 0 404<0 606 1010 1414> 606 606<0 404>
LayerCount: 2
Fore
SplineSet
1010 606 m 25
 1010 404 l 25
 1212 404 l 25
 1212 0 l 25
 606 0 l 25
 606 606 l 25
 404 606 l 25
 404 0 l 25
 0 0 l 25
 0 1414 l 25
 404 1414 l 25
 404 1010 l 25
 1212 1010 l 25
 1010 606 l 25
EndSplineSet
Validated: 1
EndChar

StartChar: l
Encoding: 108 108 14
Width: 606
VWidth: 0
Flags: W
HStem: 0 21G<0 404> 1394 20G<0 404>
VStem: 0 404<0 1414>
LayerCount: 2
Fore
SplineSet
0 0 m 25
 0 1414 l 25
 404 1414 l 25
 404 0 l 25
 0 0 l 25
EndSplineSet
Validated: 1
EndChar

StartChar: m
Encoding: 109 109 15
Width: 1818
VWidth: 0
Flags: W
HStem: 0 21G<0 404 606 1010 1212 1616> 606 404<404 606 1010 1212>
VStem: 0 404<0 606> 606 404<0 606> 1212 404<0 606>
CounterMasks: 1 38
LayerCount: 2
Fore
SplineSet
0 0 m 25
 0 1010 l 25
 1616 1010 l 25
 1616 0 l 25
 1212 0 l 25
 1212 606 l 25
 1010 606 l 25
 1010 0 l 25
 606 0 l 25
 606 606 l 25
 404 606 l 25
 404 0 l 25
 0 0 l 25
EndSplineSet
Validated: 1
EndChar

StartChar: o
Encoding: 111 111 16
Width: 1414
VWidth: 0
Flags: W
HStem: 0 404<404 808> 606 404<404 808>
LayerCount: 2
Fore
SplineSet
404 404 m 25
 808 404 l 25
 808 606 l 17
 671 606 541 606 404 606 c 9
 404 404 l 25
0 0 m 25
 0 1010 l 25
 1212 1010 l 25
 1212 0 l 25
 0 0 l 25
EndSplineSet
Validated: 1
EndChar

StartChar: p
Encoding: 112 112 17
Width: 1414
VWidth: 0
Flags: W
HStem: 0 404<404 808> 606 404<404 808>
VStem: 0 404<-404 0 404 606>
LayerCount: 2
Fore
SplineSet
404 404 m 25
 808 404 l 25
 808 606 l 17
 671 606 541 606 404 606 c 9
 404 404 l 25
0 -404 m 1
 0 1010 l 25
 1212 1010 l 25
 1212 0 l 17
 404 0 l 1
 404 -404 l 1
 0 -404 l 1
EndSplineSet
Validated: 1
EndChar

StartChar: r
Encoding: 114 114 18
Width: 1414
VWidth: 0
Flags: W
HStem: 0 21G<0 404> 606 404<404 1212>
VStem: 0 404<0 606>
LayerCount: 2
Fore
SplineSet
0 0 m 25
 0 1010 l 25
 1212 1010 l 25
 1212 606 l 25
 404 606 l 25
 404 0 l 25
 0 0 l 25
EndSplineSet
Validated: 1
EndChar

StartChar: t
Encoding: 116 116 19
Width: 1414
VWidth: 0
Flags: W
HStem: 0 404<404 1212> 606 404<404 1212> 1394 20G<364 404>
VStem: 0 404<404 606 1010 1212>
LayerCount: 2
Fore
SplineSet
0 0 m 17
 0 406 0 806 0 1212 c 9
 404 1414 l 25
 404 1010 l 1
 1212 1010 l 1
 1212 606 l 1
 404 606 l 1
 404 404 l 25
 1212 404 l 25
 1212 0 l 25
 0 0 l 17
EndSplineSet
Validated: 1
EndChar

StartChar: u
Encoding: 117 117 20
Width: 1414
VWidth: 0
Flags: W
HStem: 0 404<404 808> 990 20G<0 404 808 1212> 990 20G<0 404 808 1212>
VStem: 0 404<404 1010> 808 404<404 1010>
LayerCount: 2
Fore
SplineSet
0 0 m 25xd8
 0 1010 l 25
 404 1010 l 25
 404 404 l 25
 808 404 l 25
 808 1010 l 25
 1212 1010 l 25
 1212 -202 l 25
 808 0 l 25
 0 0 l 25xd8
EndSplineSet
Validated: 1
EndChar

StartChar: v
Encoding: 118 118 21
Width: 1414
VWidth: 0
Flags: W
HStem: 0 404<404 808> 990 20G<0 404 808 1212> 990 20G<0 404 808 1212>
VStem: 0 404<404 1010> 808 404<404 1010>
LayerCount: 2
Fore
SplineSet
0 0 m 25xd8
 0 1010 l 25
 404 1010 l 25
 404 404 l 25
 808 404 l 25
 808 1010 l 25
 1212 1010 l 25
 1212 0 l 25
 0 0 l 25xd8
EndSplineSet
Validated: 1
EndChar

StartChar: w
Encoding: 119 119 22
Width: 1818
VWidth: 0
Flags: W
HStem: 0 404<404 606 1010 1212> 990 20G<0 404 606 1010 1212 1616> 990 20G<0 404 606 1010 1212 1616>
VStem: 0 404<404 1010> 606 404<404 1010> 1212 404<404 1010>
CounterMasks: 1 1c
LayerCount: 2
Fore
SplineSet
0 0 m 25xdc
 0 1010 l 25
 404 1010 l 25
 404 404 l 25
 606 404 l 25
 606 1010 l 25
 1010 1010 l 25
 1010 404 l 25
 1212 404 l 25
 1212 1010 l 25
 1616 1010 l 25
 1616 0 l 25
 0 0 l 25xdc
EndSplineSet
Validated: 1
EndChar

StartChar: x
Encoding: 120 120 23
Width: 1414
VWidth: 0
Flags: W
HStem: 0 404<0 404 808 1212> 606 404<0 404 808 1212>
LayerCount: 2
Fore
SplineSet
0 0 m 25
 0 404 l 25
 404 404 l 25
 404 606 l 25
 0 606 l 25
 0 1010 l 25
 1212 1010 l 25
 1212 606 l 25
 808 606 l 25
 808 404 l 25
 1212 404 l 25
 1212 0 l 25
 0 0 l 25
EndSplineSet
Validated: 1
EndChar

StartChar: y
Encoding: 121 121 24
Width: 1414
VWidth: 0
Flags: W
HStem: -606 404<404 808> 0 404<404 808> 990 20G<0 404 808 1212> 990 20G<0 404 808 1212>
VStem: 0 404<404 1010> 808 404<-202 0 404 1010>
LayerCount: 2
Fore
SplineSet
0 0 m 25xec
 0 1010 l 25
 404 1010 l 25
 404 404 l 25
 808 404 l 25
 808 1010 l 25
 1212 1010 l 25
 1212 -606 l 25
 404 -606 l 25
 404 -202 l 25
 808 -202 l 25
 808 0 l 25
 0 0 l 25xec
EndSplineSet
Validated: 1
EndChar

StartChar: z
Encoding: 122 122 25
Width: 1414
VWidth: 0
Flags: W
HStem: 0 404<808 1212> 606 404<0 404>
LayerCount: 2
Fore
SplineSet
1212 1010 m 25
 1212 606 l 1
 808 404 l 1
 1212 404 l 1
 1212 0 l 25
 0 0 l 25
 0 404 l 25
 404 606 l 25
 0 606 l 25
 0 1010 l 25
 1212 1010 l 25
EndSplineSet
Validated: 1
EndChar

StartChar: G
Encoding: 71 71 27
Width: 1429
VWidth: 0
Flags: W
HStem: 0 404<404 808> 1010 404<404 1212>
VStem: 0 404<404 1010> 808 404<-202 0 404 606>
LayerCount: 2
Fore
SplineSet
0 0 m 25
 0 1414 l 25
 1212 1414 l 25
 1212 1010 l 25
 404 1010 l 25
 404 404 l 25
 808 404 l 25
 808 606 l 1
 1212 606 l 25
 1212 -202 l 1
 808 -202 l 25
 808 0 l 25
 0 0 l 25
EndSplineSet
Validated: 1
EndChar

StartChar: at
Encoding: 64 64 28
Width: 1818
VWidth: 0
Flags: W
HStem: 0 21G<364 404 606 1616> 1010 404<404 1212>
VStem: 0 404<202 1010> 606 404<404 808> 1212 404<404 1010>
CounterMasks: 1 38
LayerCount: 2
Fore
SplineSet
606 808 m 1
 1010 808 l 1
 1010 404 l 1
 1212 404 l 1
 1212 1010 l 1
 404 1010 l 1
 404 0 l 1
 0 202 l 1
 0 1414 l 1
 1616 1414 l 1
 1616 0 l 1
 606 0 l 1
 606 808 l 1
EndSplineSet
Validated: 1
EndChar

StartChar: .notdef
Encoding: 65536 -1 29
Width: 1414
VWidth: 0
Flags: HW
HStem: 0 204<204 1022> 1022 204<204 1022>
VStem: 0 204<204 1022> 1022 204<204 1022>
LayerCount: 2
Fore
SplineSet
1010 202 m 25
 1010 1010 l 21
 738 1010 474 1010 202 1010 c 9
 202 202 l 25
 1010 202 l 25
0 0 m 25
 0 1212 l 25
 1212 1212 l 25
 1212 0 l 25
 0 0 l 25
EndSplineSet
Validated: 1
Comment: "Montserrat defines the .notdef glyph beyond the Unicode most-significant character (0xFFFF) to have the address 0x10000.+AAoACgAA-http://unicode.org/charts/PDF/U25A0.pdf+AAoA-https://www.microsoft.com/typography/otspec/recom.htm"
EndChar

StartChar: period
Encoding: 46 46 30
Width: 606
VWidth: 0
Flags: W
HStem: 0 405<0 404>
VStem: 0 404<0 405>
LayerCount: 2
Fore
SplineSet
0 0 m 25
 0 405 l 17
 135 405 269 405 404 405 c 9
 404 0 l 25
 0 0 l 25
EndSplineSet
Validated: 1
EndChar

StartChar: comma
Encoding: 44 44 31
Width: 606
VWidth: 0
Flags: W
HStem: -202 606<0 28.672>
VStem: 0 404<0 404>
LayerCount: 2
Fore
SplineSet
0 -202 m 25
 0 404 l 25
 404 404 l 25
 404 0 l 25
 0 -202 l 25
EndSplineSet
Validated: 1
EndChar

StartChar: hyphen
Encoding: 45 45 32
Width: 1010
VWidth: 0
Flags: W
HStem: 404 404<0 808>
LayerCount: 2
Fore
SplineSet
0 404 m 25
 0 808 l 25
 808 808 l 25
 808 404 l 25
 0 404 l 25
EndSplineSet
Validated: 1
EndChar

StartChar: colon
Encoding: 58 58 33
Width: 606
VWidth: 0
Flags: W
HStem: 0 404<0 404> 606 404<0 404>
VStem: 0 404<0 404 606 1010>
LayerCount: 2
Fore
SplineSet
0 606 m 25
 0 1010 l 25
 404 1010 l 25
 404 606 l 25
 0 606 l 25
0 0 m 25
 0 404 l 25
 404 404 l 25
 404 0 l 25
 0 0 l 25
EndSplineSet
Validated: 1
EndChar

StartChar: equal
Encoding: 61 61 34
Width: 1010
VWidth: 0
Flags: W
HStem: 0 404<0 808> 606 404<0 808>
VStem: 0 808<0 404 606 1010>
LayerCount: 2
Fore
SplineSet
0 606 m 1
 0 1010 l 1
 808 1010 l 25
 808 606 l 25
 0 606 l 1
0 0 m 1
 0 404 l 1
 808 404 l 25
 808 0 l 25
 0 0 l 1
EndSplineSet
Validated: 1
EndChar

StartChar: semicolon
Encoding: 59 59 35
Width: 606
VWidth: 0
Flags: W
HStem: 606 404<0 404>
VStem: 0 404<0 404 606 1010>
LayerCount: 2
Fore
SplineSet
0 606 m 25
 0 1010 l 25
 404 1010 l 25
 404 606 l 25
 0 606 l 25
0 -202 m 25
 0 404 l 1
 404 404 l 25
 404 0 l 1
 0 -202 l 25
EndSplineSet
Validated: 1
EndChar

StartChar: plus
Encoding: 43 43 36
Width: 1414
VWidth: 0
Flags: W
HStem: 0 21G<404 808> 404 404<0 404 808 1212>
VStem: 404 404<0 404 808 1212>
LayerCount: 2
Fore
SplineSet
0 404 m 25
 0 808 l 25
 404 808 l 25
 404 1212 l 25
 808 1212 l 25
 808 808 l 25
 1212 808 l 25
 1212 404 l 25
 808 404 l 25
 808 0 l 25
 404 0 l 25
 404 404 l 25
 0 404 l 25
EndSplineSet
Validated: 1
EndChar

StartChar: exclam
Encoding: 33 33 37
Width: 606
VWidth: 0
Flags: W
HStem: 0 404<0 404> 1394 20G<0 404>
VStem: 0 404<0 404 606 1414>
LayerCount: 2
Fore
SplineSet
0 606 m 1
 0 1414 l 25
 404 1414 l 25
 404 606 l 1
 0 606 l 1
0 0 m 25
 0 404 l 25
 404 404 l 25
 404 0 l 25
 0 0 l 25
EndSplineSet
Validated: 1
EndChar

StartChar: question
Encoding: 63 63 38
Width: 1010
VWidth: 0
Flags: W
HStem: 0 404<0 404> 1010 404<0 404>
VStem: 0 404<0 404>
LayerCount: 2
Fore
SplineSet
0 1010 m 1
 0 1414 l 1
 808 1414 l 1
 808 808 l 1
 404 606 l 1
 404 1010 l 1
 0 1010 l 1
0 0 m 25
 0 404 l 25
 404 404 l 25
 404 0 l 25
 0 0 l 25
EndSplineSet
Validated: 1
EndChar

StartChar: less
Encoding: 60 60 39
Width: 1010
VWidth: 0
Flags: W
HStem: 0 21G<754.667 808> 990 20G<754.667 808> 990 20G<754.667 808>
LayerCount: 2
Fore
SplineSet
808 404 m 1xc0
 808 0 l 1
 0 303 l 1
 0 707 l 1
 808 1010 l 1
 808 606 l 1
 404 505 l 1
 808 404 l 1xc0
EndSplineSet
Validated: 1
EndChar

StartChar: greater
Encoding: 62 62 40
Width: 1010
VWidth: 0
Flags: W
HStem: 0 21G<0 53.3333> 990 20G<0 53.3333> 990 20G<0 53.3333>
LayerCount: 2
Fore
SplineSet
0 606 m 1xc0
 0 1010 l 1
 808 707 l 1
 808 303 l 1
 0 0 l 1
 0 404 l 1
 404 505 l 1
 0 606 l 1xc0
EndSplineSet
Validated: 1
EndChar

StartChar: cent
Encoding: 162 162 41
Width: 1414
VWidth: 0
Flags: W
HStem: -202 606<404 808> 0 404<808 1212> 606 606<404 808> 606 404<808 1212>
VStem: 404 404<-202 0 1010 1212>
LayerCount: 2
Fore
SplineSet
0 0 m 9x48
 0 1010 l 17
 404 1010 l 1x58
 404 1212 l 1
 808 1212 l 1x28
 808 1010 l 1
 1212 1010 l 9
 1212 606 l 25x18
 404 606 l 25
 404 404 l 25xa8
 1212 404 l 25
 1212 0 l 17
 808 0 l 1x48
 808 -202 l 1
 404 -202 l 1x88
 404 0 l 1
 0 0 l 9x48
EndSplineSet
Validated: 1
EndChar

StartChar: Y
Encoding: 89 89 42
Width: 1414
VWidth: 0
Flags: W
HStem: 0 21G<404 808> 606 808<0 404 808 1212>
VStem: 0 404<1010 1414> 404 404<0 606> 808 404<1010 1414>
LayerCount: 2
Fore
SplineSet
404 0 m 25xd0
 404 606 l 25xd0
 0 606 l 25
 0 1414 l 25
 404 1414 l 25
 404 1010 l 25
 808 1010 l 25
 808 1414 l 25
 1212 1414 l 25
 1212 606 l 25xe8
 808 606 l 25
 808 0 l 25
 404 0 l 25xd0
EndSplineSet
Validated: 1
EndChar

StartChar: yen
Encoding: 165 165 43
Width: 1818
VWidth: 0
Flags: HW
HStem: 1010 21G<606 1010> 1010 21G<606 1010>
LayerCount: 2
Fore
SplineSet
606 0 m 17x80
 606 202 l 1
 202 202 l 1
 202 404 l 1
 606 404 l 1
 606 606 l 1
 -0 606 l 17
 0 808 l 1
 202 808 l 1
 202 1414 l 1
 606 1414 l 1
 606 1010 l 25
 1010 1010 l 25
 1010 1414 l 1
 1414 1414 l 1
 1414 808 l 1
 1616 808 l 1
 1616 606 l 9
 1010 606 l 1
 1010 404 l 1
 1414 404 l 1
 1414 202 l 1
 1010 202 l 1
 1010 0 l 9
 606 0 l 17x80
EndSplineSet
Validated: 1
EndChar

StartChar: W
Encoding: 87 87 44
Width: 1818
VWidth: 0
Flags: W
HStem: 0 404<404 606 1010 1212> 1394 20G<0 404 606 1010 1212 1616>
VStem: 0 404<404 1414> 606 404<404 1414> 1212 404<404 1414>
CounterMasks: 1 38
LayerCount: 2
Fore
SplineSet
0 0 m 1
 0 1414 l 25
 404 1414 l 25
 404 404 l 1
 606 404 l 1
 606 1414 l 25
 1010 1414 l 25
 1010 404 l 1
 1212 404 l 1
 1212 1414 l 25
 1616 1414 l 25
 1616 0 l 1
 0 0 l 1
EndSplineSet
Validated: 1
EndChar

StartChar: X
Encoding: 88 88 45
Width: 1414
VWidth: 0
Flags: W
HStem: 0 404<0 404 808 1212> 1010 404<0 404 808 1212>
VStem: 404 404<404 1010>
LayerCount: 2
Fore
SplineSet
0 0 m 25
 0 404 l 25
 404 404 l 1
 404 1010 l 25
 0 1010 l 25
 0 1414 l 25
 1212 1414 l 25
 1212 1010 l 25
 808 1010 l 25
 808 404 l 1
 1212 404 l 25
 1212 0 l 25
 0 0 l 25
EndSplineSet
Validated: 1
EndChar

StartChar: sterling
Encoding: 163 163 46
Width: 1616
VWidth: 0
Flags: HW
HStem: 0 404<0 404 808 1414> 606 202<202 404 808 1010> 1394 20G<1172 1212>
VStem: 404 404<404 606 808 1010>
LayerCount: 2
Fore
SplineSet
808 1212 m 1
 808 1414 l 5
 1212 1414 l 1
 1212 1010 l 1
 808 1010 l 1
 808 808 l 1
 1010 808 l 25
 1010 606 l 25
 808 606 l 1
 808 404 l 25
 1414 404 l 25
 1414 0 l 1
 0 0 l 25
 0 404 l 1
 404 404 l 25
 404 606 l 25
 202 606 l 25
 202 808 l 1
 404 808 l 1
 404 1212 l 1
 808 1212 l 1
EndSplineSet
Validated: 1
EndChar

StartChar: zero
Encoding: 48 48 47
Width: 1414
VWidth: 0
Flags: HW
HStem: -606 404<404 808> 606 404<404 808>
VStem: 0 404<-202 606> 808 404<-202 606>
LayerCount: 2
Fore
SplineSet
404 -202 m 1
 808 -202 l 1
 808 606 l 1
 673 606 539 606 404 606 c 1
 404 -202 l 1
0 -606 m 1
 0 1010 l 1
 1212 1010 l 1
 1212 -606 l 1
 0 -606 l 1
EndSplineSet
Validated: 1
EndChar

StartChar: one
Encoding: 49 49 48
Width: 808
VWidth: 0
Flags: W
HStem: -606 21G<202 606> 990 20G<0 606> 990 20G<0 606>
VStem: 0 606<606 1010> 202 404<-606 606>
LayerCount: 2
Fore
SplineSet
202 -606 m 25xc8
 202 606 l 1xc8
 0 606 l 1
 0 1010 l 25
 606 1010 l 1xd0
 606 -606 l 25
 202 -606 l 25xc8
EndSplineSet
Validated: 1
EndChar

StartChar: two
Encoding: 50 50 49
Width: 1414
VWidth: 0
Flags: W
HStem: -606 404<404 1212> 0 404<404 808> 606 404<0 808>
VStem: 0 1212<-606 -202 0 404 606 1010>
CounterMasks: 1 e0
LayerCount: 2
Fore
SplineSet
1212 0 m 1
 404 0 l 1
 404 -202 l 1
 1212 -202 l 1
 1212 -606 l 1
 404 -606 l 1
 0 -606 l 1
 0 404 l 1
 808 404 l 1
 808 606 l 1
 0 606 l 1
 0 1010 l 1
 1212 1010 l 1
 1212 202 l 1
 1212 0 l 1
EndSplineSet
Validated: 1
EndChar

StartChar: three
Encoding: 51 51 50
Width: 1414
VWidth: 0
Flags: W
HStem: -606 404<0 808> 0 404<0 808> 606 404<0 808>
VStem: 0 1212<-606 -202 0 404 606 1010> 808 404<-202 0 404 606>
CounterMasks: 1 e0
LayerCount: 2
Fore
SplineSet
0 0 m 1xf0
 0 404 l 1xf0
 808 404 l 1
 808 606 l 1xe8
 0 606 l 1
 0 1010 l 1
 1212 1010 l 1
 1212 -606 l 1
 0 -606 l 1
 0 -202 l 1xf0
 808 -202 l 1
 808 0 l 1xe8
 0 0 l 1xf0
EndSplineSet
Validated: 1
EndChar

StartChar: four
Encoding: 52 52 51
Width: 1616
VWidth: 0
Flags: W
HStem: -606 21G<808 1212> 0 404<404 808 1212 1414> 990 20G<0 404 808 1212> 990 20G<0 404 808 1212>
VStem: 0 404<404 1010> 808 404<-606 0 404 1010>
LayerCount: 2
Fore
SplineSet
404 1010 m 1xec
 404 404 l 1
 808 404 l 25
 808 1010 l 25
 1212 1010 l 25
 1212 404 l 25
 1414 404 l 25
 1414 0 l 25
 1212 0 l 1
 1212 -606 l 25
 808 -606 l 25
 808 0 l 1
 0 0 l 1
 0 1010 l 25
 404 1010 l 1xec
EndSplineSet
Validated: 1
EndChar

StartChar: five
Encoding: 53 53 52
Width: 1414
VWidth: 0
Flags: W
HStem: -606 404<0 808> 0 404<404 808> 606 404<404 1212>
VStem: 0 1212<-606 -202 0 404 606 1010>
CounterMasks: 1 e0
LayerCount: 2
Fore
SplineSet
0 0 m 1
 0 1010 l 1
 1212 1010 l 1
 1212 606 l 1
 404 606 l 1
 404 404 l 1
 1212 404 l 25
 1212 -606 l 1
 0 -606 l 1
 0 -202 l 1
 808 -202 l 25
 808 0 l 25
 0 0 l 1
EndSplineSet
Validated: 1
EndChar

StartChar: six
Encoding: 54 54 53
Width: 1414
VWidth: 0
Flags: W
HStem: -606 404<404 808> -0 404<404 808> 606 404<404 1212>
VStem: 0 1212<-606 -202 0 404 606 1010> 0 404<-202 0 404 606>
CounterMasks: 1 e0
LayerCount: 2
Fore
SplineSet
404 -202 m 25xe8
 808 -202 l 25
 808 -0 l 17
 673 0 539 -0 404 -0 c 9
 404 -202 l 25xe8
0 -606 m 1xf0
 0 1010 l 1
 1212 1010 l 1
 1212 606 l 1xf0
 404 606 l 1
 404 404 l 1xe8
 1212 404 l 25
 1212 -606 l 1
 0 -606 l 1xf0
EndSplineSet
Validated: 1
EndChar

StartChar: seven
Encoding: 55 55 54
Width: 1414
VWidth: 0
Flags: W
HStem: -606 21G<808 1212> 606 404<0 808>
VStem: 808 404<-606 606>
LayerCount: 2
Fore
SplineSet
0 606 m 1
 0 1010 l 25
 1212 1010 l 1
 1212 -606 l 25
 808 -606 l 1
 808 606 l 25
 0 606 l 1
EndSplineSet
Validated: 1
EndChar

StartChar: eight
Encoding: 56 56 55
Width: 1414
VWidth: 0
Flags: W
HStem: -606 404<404 808> 0 404<404 808> 606 404<404 808>
VStem: 0 404<-202 0 404 606> 808 404<-202 0 404 606>
CounterMasks: 1 e0
LayerCount: 2
Fore
SplineSet
404 404 m 25
 808 404 l 25
 808 606 l 17
 673 606 539 606 404 606 c 9
 404 404 l 25
404 -202 m 25
 808 -202 l 25
 808 0 l 25
 404 0 l 25
 404 -202 l 25
0 -606 m 25
 0 1010 l 25
 1212 1010 l 25
 1212 -606 l 25
 0 -606 l 25
EndSplineSet
Validated: 1
EndChar

StartChar: nine
Encoding: 57 57 56
Width: 1414
VWidth: 0
Flags: W
HStem: -606 404<0 808> 0 404<404 808> 606 404<404 808>
VStem: 0 1212<-606 -202 0 404 606 1010> 808 404<-202 0 404 606>
CounterMasks: 1 e0
LayerCount: 2
Fore
SplineSet
404 404 m 25xe8
 808 404 l 25
 808 606 l 17
 673 606 539 606 404 606 c 9
 404 404 l 25xe8
808 0 m 25
 0 0 l 25
 0 1010 l 25
 1212 1010 l 25
 1212 -606 l 25
 0 -606 l 25
 0 -202 l 25xf0
 808 -202 l 25
 808 0 l 25
EndSplineSet
Validated: 1
EndChar

StartChar: slash
Encoding: 47 47 57
Width: 1212
VWidth: 0
Flags: W
HStem: 0 21G<0 414> 1394 20G<697 1111>
LayerCount: 2
Fore
SplineSet
0 0 m 25
 707 1414 l 25
 1111 1414 l 25
 404 0 l 25
 0 0 l 25
EndSplineSet
Validated: 1
EndChar

StartChar: backslash
Encoding: 92 92 58
Width: 1313
VWidth: 0
Flags: W
HStem: 0 21G<697 1111> 1394 20G<0 414>
LayerCount: 2
Fore
SplineSet
0 1414 m 25
 404 1414 l 25
 1111 0 l 25
 707 0 l 25
 0 1414 l 25
EndSplineSet
Validated: 1
EndChar

StartChar: bracketleft
Encoding: 91 91 59
Width: 808
VWidth: 0
Flags: W
HStem: 0 21G<0 606> 1394 20G<0 606>
VStem: 0 606<0 404 1010 1414> 0 404<404 1010>
LayerCount: 2
Fore
SplineSet
0 0 m 25xe0
 0 1414 l 25
 606 1414 l 25
 606 1010 l 25xe0
 404 1010 l 25
 404 404 l 25xd0
 606 404 l 25
 606 0 l 25
 0 0 l 25xe0
EndSplineSet
Validated: 1
EndChar

StartChar: bracketright
Encoding: 93 93 60
Width: 808
VWidth: 0
Flags: W
HStem: 0 21G<0 606> 1394 20G<0 606>
VStem: 0 606<0 404 1010 1414> 202 404<404 1010>
LayerCount: 2
Fore
SplineSet
0 0 m 25xe0
 0 404 l 25xe0
 202 404 l 25
 202 1010 l 25xd0
 0 1010 l 25
 0 1414 l 25
 606 1414 l 25
 606 0 l 25
 0 0 l 25xe0
EndSplineSet
Validated: 1
EndChar

StartChar: asciicircum
Encoding: 94 94 61
Width: 1010
VWidth: 0
Flags: W
HStem: 606 606
LayerCount: 2
Fore
SplineSet
0 1010 m 25
 404 1212 l 25
 808 1010 l 25
 808 606 l 25
 404 808 l 25
 0 606 l 25
 0 1010 l 25
EndSplineSet
Validated: 1
EndChar

StartChar: underscore
Encoding: 95 95 62
Width: 1414
VWidth: 0
Flags: W
HStem: -404 404<0 1212>
LayerCount: 2
Fore
SplineSet
0 0 m 25
 1212 0 l 25
 1212 -404 l 25
 0 -404 l 25
 0 0 l 25
EndSplineSet
Validated: 1
EndChar

StartChar: grave
Encoding: 96 96 63
Width: 606
VWidth: 0
Flags: W
HStem: 808 606<375.328 404>
VStem: 0 404<1010 1414>
LayerCount: 2
Fore
SplineSet
0 1414 m 25
 404 1414 l 25
 404 808 l 25
 0 1010 l 25
 0 1414 l 25
EndSplineSet
Validated: 1
EndChar

StartChar: asciitilde
Encoding: 126 126 64
Width: 1414
VWidth: 0
Flags: W
HStem: 404 606<0 404> 606 606<808 1212> 606 404<404 808>
LayerCount: 2
Fore
SplineSet
0 404 m 25x80
 0 1010 l 25x80
 808 1010 l 25x20
 808 1212 l 25
 1212 1212 l 25
 1212 606 l 25x40
 404 606 l 25x20
 404 404 l 25
 0 404 l 25x80
EndSplineSet
Validated: 1
EndChar

StartChar: quotesingle
Encoding: 39 39 65
Width: 606
VWidth: 0
Flags: W
HStem: 808 606<0 28.672>
VStem: 0 404<1010 1414>
LayerCount: 2
Fore
SplineSet
0 808 m 25
 0 1414 l 25
 404 1414 l 25
 404 1010 l 25
 0 808 l 25
EndSplineSet
Validated: 1
EndChar

StartChar: numbersign
Encoding: 35 35 66
Width: 1616
VWidth: 0
Flags: HW
HStem: 0 21G<202 606 808 1212> 202 404<0 202 606 808 1212 1414> 808 404<0 202 606 808 1212 1414> 1394 20G<202 606 808 1212>
VStem: 202 404<0 202 606 808 1212 1414> 808 404<0 202 606 808 1212 1414>
LayerCount: 2
Fore
SplineSet
808 606 m 25
 808 808 l 17
 741 808 673 808 606 808 c 9
 606 606 l 25
 808 606 l 25
202 0 m 25
 202 202 l 25
 0 202 l 25
 0 606 l 25
 202 606 l 25
 202 808 l 25
 0 808 l 25
 0 1212 l 25
 202 1212 l 25
 202 1414 l 25
 606 1414 l 25
 606 1212 l 25
 808 1212 l 25
 808 1414 l 25
 1212 1414 l 25
 1212 1212 l 25
 1414 1212 l 25
 1414 808 l 25
 1212 808 l 25
 1212 606 l 25
 1414 606 l 25
 1414 202 l 25
 1212 202 l 25
 1212 0 l 25
 808 0 l 25
 808 202 l 25
 606 202 l 25
 606 0 l 25
 202 0 l 25
EndSplineSet
Validated: 1
EndChar

StartChar: a.ss01
Encoding: 65537 -1 67
Width: 1414
VWidth: 0
Flags: HWO
HStem: 0 404<404 808> 606 404<404 808>
LayerCount: 2
Fore
SplineSet
404 404 m 1
 536 404 676 404 808 404 c 5
 808 606 l 1
 671 606 541 606 404 606 c 1
 404 404 l 1
0 0 m 1
 0 341 0 669 0 1010 c 1
 272 1010 940 1010 1212 1010 c 1
 1212 404 l 1
 1414 404 l 1
 1414 0 l 1
 1005 0 409 0 0 0 c 1
EndSplineSet
EndChar

StartChar: a.ss02
Encoding: 65538 -1 68
Width: 1414
VWidth: 0
Flags: W
HStem: 0 404<404 808> 606 404<404 808>
LayerCount: 2
Fore
SplineSet
404 404 m 1
 536 404 676 404 808 404 c 1
 808 606 l 1
 671 606 541 606 404 606 c 1
 404 404 l 1
0 0 m 1
 0 341 0 669 0 1010 c 1
 272 1010 536 1010 808 1010 c 1
 808 1212 l 1
 1212 1212 l 5
 1212 0 l 1
 803 0 409 0 0 0 c 1
EndSplineSet
EndChar
